#N canvas 748 280 733 525 12;
#X msg 28 34 \; pd dsp 1;
#X obj 31 7 loadbang;
#X obj 100 251 dac~;
#X obj 127 116 +~;
#X obj 116 164 *~ 0.5;
#X obj 122 72 readsf~;
#X obj 120 0 bng 15 250 50 0 empty empty empty 17 7 0 10 -262144 -1
-1;
#X obj 121 24 t b b;
#X msg 115 47 1;
#X msg 152 46 open ../funk-kit.wav;
#X obj 230 144 readsf~;
#X obj 230 98 t b b;
#X msg 224 121 1;
#X msg 261 120 open ../ericderr.wav;
#X connect 1 0 0 0;
#X connect 3 0 4 0;
#X connect 4 0 2 0;
#X connect 4 0 2 1;
#X connect 5 0 3 0;
#X connect 6 0 7 0;
#X connect 6 0 11 0;
#X connect 7 0 8 0;
#X connect 7 1 9 0;
#X connect 8 0 5 0;
#X connect 9 0 5 0;
#X connect 10 0 3 1;
#X connect 11 0 12 0;
#X connect 11 1 13 0;
#X connect 12 0 10 0;
#X connect 13 0 10 0;
